<?xml version="1.0" encoding="utf-8"?>
<!-- Generator: Adobe Illustrator 24.0.0, SVG Export Plug-In . SVG Version: 6.00 Build 0)  -->
<svg version="1.1" id="Capa_1" xmlns="http://www.w3.org/2000/svg" xmlns:xlink="http://www.w3.org/1999/xlink" x="0px" y="0px"
	 viewBox="0 0 40 40" style="enable-background:new 0 0 40 40;" xml:space="preserve">
<g>
	<path d="M3.01,34.58C8.01,30.2,13,25.81,18.76,20.76C12.96,14.9,8,9.89,3.03,4.88C3.65,4.24,4.28,3.6,4.9,2.96
		c4.95,4.65,9.9,9.3,15.58,14.63c4.99-4.91,10.02-9.86,15.05-14.82c0.64,0.61,1.28,1.22,1.93,1.83c-4.65,4.95-9.3,9.89-14.62,15.55
		c4.9,4.97,9.85,9.99,14.81,15c-0.63,0.66-1.25,1.31-1.88,1.97c-4.94-4.67-9.88-9.34-15.42-14.59c-5.12,4.89-10.26,9.79-15.41,14.7
		C4.29,36.35,3.65,35.46,3.01,34.58z"/>
</g>
</svg>
