<svg width="45" height="45" viewBox="0 0 45 45" fill="none" xmlns="http://www.w3.org/2000/svg">
<path d="M40.1641 45H30.9282V29.5309H35.1398L37.9542 22.495H30.9381C30.9381 20.6717 30.9381 18.8879 30.9381 17.0943C30.9381 15.9447 31.3543 15.4988 32.5138 15.4889H36.4776V8.43316C34.7534 8.43316 33.0687 8.43316 31.394 8.43316C30.7362 8.44858 30.0805 8.5115 29.4318 8.62145C27.6451 8.92747 26.0083 9.81174 24.773 11.1384C23.5377 12.465 22.7722 14.1606 22.5941 15.9645C22.4554 17.9465 22.5248 19.9284 22.495 21.9797V22.495H16.8961V29.5309H22.495V45H4.82603C4.76623 44.9644 4.70319 44.9345 4.63774 44.9108C3.34425 44.6874 2.17065 44.0158 1.32268 43.0138C0.4747 42.0119 0.006449 40.7434 0 39.4307C0 28.1469 0 16.8564 0 5.55935C0.00522283 4.08652 0.592615 2.67552 1.63407 1.63407C2.67552 0.592615 4.08652 0.00522283 5.55935 0H39.4307C40.6393 0.0128524 41.8118 0.413699 42.7752 1.14344C43.7387 1.87318 44.4422 2.89319 44.782 4.05307C44.8514 4.31072 44.9207 4.57829 45 4.83594V40.1641C44.9632 40.209 44.9331 40.2591 44.9108 40.3127C44.7473 41.3435 44.2959 42.3071 43.6086 43.0926C42.9214 43.878 42.0262 44.4533 41.0262 44.7523C40.7487 44.8514 40.4514 44.9207 40.1641 45Z" fill="url(#paint0_linear_252_191)"/>
<defs>
<linearGradient id="paint0_linear_252_191" x1="1.27119" y1="2.77174" x2="52.2849" y2="15.8497" gradientUnits="userSpaceOnUse">
<stop stop-color="#0083B4"/>
<stop offset="1" stop-color="#8FC2D3"/>
</linearGradient>
</defs>
</svg>
