<svg width="147" height="140" viewBox="0 0 147 140" fill="none" xmlns="http://www.w3.org/2000/svg">
<path d="M147 83.4317C147.004 79.5202 145.587 75.7404 143.013 72.7947C144.483 70.5301 145.364 67.9345 145.577 65.2433C145.79 62.552 145.328 59.8501 144.232 57.3826C143.137 54.9152 141.442 52.7601 139.303 51.1128C137.164 49.4656 134.647 48.3782 131.981 47.9493C131.448 47.8147 130.9 47.746 130.35 47.7447H96.6175C96.9991 45.4836 97.4691 42.8962 98.0166 40.3033C99.8138 31.7064 100.704 21.3403 93.6535 9.58654C88.6435 1.24393 81.8971 3.53254e-07 78.3248 3.53254e-07C75.8336 -0.000516762 73.375 0.566713 71.136 1.65858C69.9741 2.26767 69.0241 3.2144 68.411 4.37403C67.798 5.53365 67.5508 6.85176 67.7019 8.15465C68.7194 17.0004 69.6042 27.8585 69.3609 30.3961C68.6531 32.8176 63.4993 42.2162 60.4081 47.8664C56.4985 54.9927 53.1308 61.1349 51.8257 64.5682C51.2341 66.1162 50.5152 66.7464 49.4479 67.0892V66.8791C49.4479 65.1558 48.7635 63.5029 47.5452 62.2838C46.3268 61.0646 44.6741 60.379 42.9503 60.3775H6.5031C4.77882 60.379 3.12558 61.0645 1.90633 62.2834C0.687081 63.5024 0.00146436 65.1552 0 66.8791V133.498C0 135.223 0.685148 136.876 1.90472 138.096C3.12429 139.315 4.77837 140 6.5031 140H42.9116C43.7654 140 44.6107 139.832 45.3994 139.505C46.1881 139.178 46.9046 138.699 47.5081 138.095C48.1115 137.492 48.59 136.775 48.9162 135.986C49.2424 135.197 49.4099 134.352 49.4092 133.498V130.983C53.3615 132.797 57.4426 134.316 61.6191 135.527C62.1944 135.693 62.7901 135.776 63.3887 135.776H115.978C118.36 135.772 120.713 135.244 122.869 134.23C125.025 133.216 126.932 131.741 128.455 129.909C129.977 128.076 131.079 125.932 131.68 123.627C132.282 121.322 132.369 118.913 131.937 116.57C135.406 114.786 138.116 111.813 139.572 108.195C141.029 104.576 141.133 100.555 139.866 96.8661C142.064 95.3806 143.863 93.3791 145.107 91.037C146.35 88.6948 147 86.0834 147 83.4317Z" fill="url(#paint0_linear_109_653)"/>
<path d="M147 83.4317C147.004 79.5202 145.587 75.7404 143.013 72.7947C144.483 70.5301 145.364 67.9345 145.577 65.2433C145.79 62.552 145.328 59.8501 144.232 57.3826C143.137 54.9152 141.442 52.7601 139.303 51.1128C137.164 49.4656 134.647 48.3782 131.981 47.9493C131.448 47.8147 130.9 47.746 130.35 47.7447H96.6175C96.9991 45.4836 97.4691 42.8962 98.0166 40.3033C99.8138 31.7064 100.704 21.3403 93.6535 9.58654C88.6435 1.24393 81.8971 3.53254e-07 78.3248 3.53254e-07C75.8336 -0.000516762 73.375 0.566713 71.136 1.65858C69.9741 2.26767 69.0241 3.2144 68.411 4.37403C67.798 5.53365 67.5508 6.85176 67.7019 8.15465C68.7194 17.0004 69.6042 27.8585 69.3609 30.3961C68.6531 32.8176 63.4993 42.2162 60.4081 47.8664C56.4985 54.9927 53.1308 61.1349 51.8257 64.5682C51.2341 66.1162 50.5152 66.7464 49.4479 67.0892V66.8791C49.4479 65.1558 48.7635 63.5029 47.5452 62.2838C46.3268 61.0646 44.6741 60.379 42.9503 60.3775H6.5031C4.77882 60.379 3.12558 61.0645 1.90633 62.2834C0.687081 63.5024 0.00146436 65.1552 0 66.8791V133.498C0 135.223 0.685148 136.876 1.90472 138.096C3.12429 139.315 4.77837 140 6.5031 140H42.9116C43.7654 140 44.6107 139.832 45.3994 139.505C46.1881 139.178 46.9046 138.699 47.5081 138.095C48.1115 137.492 48.59 136.775 48.9162 135.986C49.2424 135.197 49.4099 134.352 49.4092 133.498V130.983C53.3615 132.797 57.4426 134.316 61.6191 135.527C62.1944 135.693 62.7901 135.776 63.3887 135.776H115.978C118.36 135.772 120.713 135.244 122.869 134.23C125.025 133.216 126.932 131.741 128.455 129.909C129.977 128.076 131.079 125.932 131.68 123.627C132.282 121.322 132.369 118.913 131.937 116.57C135.406 114.786 138.116 111.813 139.572 108.195C141.029 104.576 141.133 100.555 139.866 96.8661C142.064 95.3806 143.863 93.3791 145.107 91.037C146.35 88.6948 147 86.0834 147 83.4317Z" fill="black" fill-opacity="0.2"/>
<path d="M78.6028 6.00015C81.4393 6.00015 85.2379 7.21863 88.3508 12.447C94.2008 22.217 93.5538 30.7574 91.9282 38.5335C90.3026 46.3096 89.3295 53.8365 89.3295 53.8365H130.605V53.8808C133.096 54.1195 135.4 55.3101 137.037 57.2053C138.675 59.1006 139.52 61.5549 139.399 64.0584C139.277 66.5619 138.197 68.9223 136.384 70.6492C134.57 72.3762 132.162 73.337 129.66 73.3322H131.037C132.334 73.3012 133.624 73.5303 134.831 74.0061C136.039 74.4819 137.139 75.1948 138.067 76.1028C138.996 77.0108 139.733 78.0955 140.237 79.2933C140.741 80.491 141 81.7776 141 83.0772C141 84.3769 140.741 85.6634 140.237 86.8611C139.733 88.0589 138.996 89.1436 138.067 90.0516C137.139 90.9596 136.039 91.6725 134.831 92.1483C133.624 92.6241 132.334 92.8532 131.037 92.8223H128.537C130.613 93.6909 132.324 95.2531 133.38 97.2431C134.436 99.2331 134.77 101.528 134.327 103.737C133.884 105.947 132.69 107.934 130.949 109.361C129.208 110.788 127.027 111.567 124.777 111.565H122.212C123.816 112.809 124.991 114.524 125.573 116.471C126.155 118.418 126.114 120.498 125.456 122.42C124.798 124.343 123.556 126.011 121.905 127.19C120.253 128.37 118.274 129.003 116.246 129H63.6517C63.6517 129 55.5735 126.713 50 123.561V73.3211C53.1904 72.7284 56.3863 71.0669 58.128 66.4921C60.7267 59.6575 75.3516 35.5649 76.004 31.0066C76.6565 26.4484 74.395 6.91401 74.395 6.91401C75.7138 6.30413 77.1503 5.99215 78.6028 6.00015Z" fill="white"/>
<path d="M43 67V134H7V67H43Z" fill="#1EBAF3"/>
<path d="M29.3481 123.609C30.0015 120.83 28.2782 118.048 25.4991 117.394C22.72 116.741 19.9375 118.464 19.2841 121.243C18.6307 124.022 20.354 126.805 23.1331 127.458C25.9122 128.112 28.6948 126.389 29.3481 123.609Z" fill="#01315E"/>
<defs>
<linearGradient id="paint0_linear_109_653" x1="4.15254" y1="8.62319" x2="169.751" y2="53.1988" gradientUnits="userSpaceOnUse">
<stop stop-color="#001947"/>
<stop offset="1" stop-color="#03416E"/>
</linearGradient>
</defs>
</svg>
