<svg width="45" height="45" viewBox="0 0 45 45" fill="none" xmlns="http://www.w3.org/2000/svg">
<path fill-rule="evenodd" clip-rule="evenodd" d="M7 0C3.13401 0 0 3.13401 0 7V38C0 41.866 3.13401 45 7 45H38C41.866 45 45 41.866 45 38V7C45 3.13401 41.866 0 38 0H7ZM15.42 7.00039H6V7.02039L6.36 7.45039L10.21 13.0604L13.83 18.3204C15.0633 20.1271 16.2867 21.9237 17.5 23.7104L18.43 25.0604C18.49 25.1304 18.49 25.1704 18.43 25.2304L12 32.7004L6.09 39.6004H6.1H8.86L9.09 39.3204L15.46 31.9204L19.69 27.0004L19.75 26.9404L19.84 27.0604C20.8923 28.5692 21.9445 30.1078 23.0014 31.6533C23.3105 32.1053 23.62 32.5578 23.93 33.0104L27.76 38.5904L28.39 39.5104C28.4136 39.5414 28.4337 39.575 28.45 39.6104H38.03L37.97 39.5304L34.24 34.1004L29.24 26.9004L25.1 20.9004C25.0894 20.891 25.0808 20.8795 25.075 20.8665C25.0692 20.8536 25.0661 20.8396 25.0661 20.8254C25.0661 20.8112 25.0692 20.7972 25.075 20.7842C25.0808 20.7713 25.0894 20.7598 25.1 20.7504L27.22 18.3204L36.81 7.10039L36.89 7.01039H34.14C34.1183 7.01116 34.097 7.01699 34.0779 7.0274C34.0588 7.03782 34.0424 7.05253 34.03 7.07039L24.31 18.3604L23.76 19.0004C23.7334 18.9753 23.7129 18.9446 23.7 18.9104L20.9 14.8504L15.57 7.08039C15.555 7.05431 15.533 7.03297 15.5065 7.01882C15.48 7.00467 15.45 6.99829 15.42 7.00039ZM34.107 37.5604C34.1074 37.5504 34.1084 37.5403 34.11 37.5304L29.69 31.3204L22.12 20.4704L14.24 9.19039C14.2263 9.16611 14.2056 9.14647 14.1807 9.134C14.1558 9.12153 14.1277 9.11679 14.1 9.12039H9.87L9.93 9.21039C10.83 10.5437 11.7333 11.8371 12.64 13.0904L19.74 23.2504L24.67 30.2504L29.73 37.4904C29.7454 37.5131 29.7663 37.5314 29.7909 37.5437C29.8154 37.5559 29.8426 37.5617 29.87 37.5604H34.107Z" fill="url(#paint0_linear_252_202)"/>
<defs>
<linearGradient id="paint0_linear_252_202" x1="1.27119" y1="2.77174" x2="52.2849" y2="15.8497" gradientUnits="userSpaceOnUse">
<stop stop-color="#0083B4"/>
<stop offset="1" stop-color="#8FC2D3"/>
</linearGradient>
</defs>
</svg>
