<svg width="33" height="40" viewBox="0 0 33 40" fill="none" xmlns="http://www.w3.org/2000/svg">
<path fill-rule="evenodd" clip-rule="evenodd" d="M0.564551 3.43092C0.564551 3.43092 -0.336675 9.88405 0.138219 16.7984L16.5648 13.4261C16.9159 13.354 16.963 13.172 16.734 12.9894L4.31157 2.07587C3.09033 2.47113 1.84406 2.92265 0.565062 3.43092H0.564551ZM3.1803 28.8134C3.40114 29.1841 3.63526 29.54 3.88523 29.8749C6.92374 33.9386 11.6778 38.1914 16.5228 40C18.2231 39.3654 19.912 38.4292 21.5197 37.3063L3.17979 28.8134H3.1803ZM26.3407 33.1721C27.3856 32.0942 28.3364 30.9779 29.161 29.8749C30.9742 27.4502 31.9863 24.0252 32.52 20.4427L17.0984 23.5563C16.5801 23.6611 16.3818 23.9158 16.8209 24.3243L26.3407 33.1721ZM33 9.99245C32.8645 6.17171 32.4822 3.43143 32.4822 3.43143C25.049 0.476904 18.7087 -0.5693 12.0499 0.291287L33 9.99245Z" fill="url(#paint0_linear_47_670)"/>
<defs>
<linearGradient id="paint0_linear_47_670" x1="16.5" y1="0" x2="16.5" y2="40" gradientUnits="userSpaceOnUse">
<stop stop-color="white"/>
<stop offset="1" stop-color="#CCCCCC"/>
</linearGradient>
</defs>
</svg>
