<svg width="804" height="180" viewBox="0 0 804 180" fill="none" xmlns="http://www.w3.org/2000/svg">
<path fill-rule="evenodd" clip-rule="evenodd" d="M2.53268 15.3872C2.53268 15.3872 -1.51039 44.3285 0.620078 75.3384L74.3127 60.2142C75.8882 59.8908 76.0992 59.0744 75.0718 58.2557L19.3425 9.30997C13.8638 11.0827 8.27279 13.1077 2.53498 15.3872H2.53268ZM14.2675 129.224C15.2582 130.887 16.3085 132.483 17.4299 133.985C31.0612 152.21 52.3889 171.283 74.1247 179.394C81.7522 176.548 89.3292 172.349 96.5416 167.313L14.2652 129.224H14.2675ZM118.17 148.772C122.857 143.938 127.123 138.931 130.822 133.985C138.956 123.11 143.497 107.75 145.891 91.6827L76.7069 105.647C74.3815 106.117 73.4917 107.259 75.4617 109.091L118.17 148.772ZM148.044 44.8147C147.437 27.6792 145.721 15.3895 145.721 15.3895C112.375 2.13885 83.9308 -2.55323 54.0584 1.30638L148.044 44.8147Z" fill="url(#paint0_linear_33_893)"/>
<path d="M244.944 112.205H219.133L212.828 124.422H195.195L232.434 55.2653H251.941L264.746 124.422H246.916L244.946 112.205H244.944ZM242.974 99.3974L238.935 73.7836L225.735 99.3974H242.976H242.974ZM294.286 55.263L286.996 96.5399C286.734 98.2484 286.601 99.4295 286.601 100.088C286.601 103.108 287.454 105.424 289.163 107.034C290.871 108.644 293.399 109.447 296.749 109.447C300.689 109.447 303.907 108.33 306.404 106.096C308.899 103.862 310.509 100.677 311.231 96.5399L318.522 55.263H335.368L328.078 96.5399C326.961 102.78 324.743 108.05 321.427 112.352C318.111 116.654 314.073 119.856 309.31 121.956C304.549 124.059 299.375 125.11 293.793 125.11C286.569 125.11 280.74 123.238 276.307 119.493C271.874 115.749 269.656 110.332 269.656 103.239C269.656 101.138 269.853 98.9043 270.248 96.5399L277.44 55.263H294.286ZM390.127 55.263L387.862 68.5618H369.44L359.588 124.419H342.741L352.593 68.5618H334.27L336.634 55.263H390.127ZM412.476 125.11C406.63 125.11 401.491 123.894 397.058 121.463C392.625 119.035 389.194 115.618 386.763 111.217C384.335 106.816 383.119 101.759 383.119 96.0469C383.119 87.9676 384.86 80.7598 388.341 74.4234C391.822 68.0848 396.666 63.1427 402.871 59.5973C409.077 56.0519 416.122 54.2769 424.002 54.2769C429.911 54.2769 435.101 55.4762 439.566 57.8727C444.031 60.2692 447.48 63.6518 449.911 68.0206C452.342 72.387 453.555 77.3955 453.555 83.0439C453.555 91.1232 451.815 98.3631 448.333 104.766C444.852 111.169 439.993 116.161 433.753 119.739C427.513 123.319 420.422 125.107 412.473 125.107L412.476 125.11ZM415.037 109.545C419.372 109.545 423.181 108.428 426.465 106.195C429.749 103.961 432.294 100.957 434.099 97.1798C435.906 93.4027 436.807 89.3161 436.807 84.9152C436.807 80.1865 435.493 76.4759 432.868 73.7836C430.242 71.0913 426.563 69.7451 421.835 69.7451C417.5 69.7451 413.675 70.8619 410.359 73.0956C407.043 75.3293 404.481 78.2991 402.674 82.0119C400.867 85.7225 399.966 89.8114 399.966 94.2765C399.966 99.0052 401.28 102.732 403.906 105.459C406.531 108.185 410.244 109.547 415.037 109.547V109.545ZM533.931 77.5285C533.275 81.5349 531.731 85.195 529.3 88.5134C526.87 91.8295 523.57 94.5058 519.4 96.5422C515.229 98.5787 510.321 99.5969 504.673 99.5969H494.231L489.799 124.422H472.952L485.168 55.2653H512.456C519.68 55.2653 525.131 56.8568 528.81 60.0445C532.488 63.2299 534.327 67.5481 534.327 72.9993C534.327 74.6413 534.197 76.1526 533.933 77.5308L533.931 77.5285ZM505.657 86.3944C511.961 86.3944 515.674 83.4384 516.788 77.5285C516.919 76.4782 516.986 75.7214 516.986 75.2628C516.986 73.1621 516.311 71.5362 514.965 70.3849C513.619 69.236 511.566 68.6604 508.808 68.6604H499.646L496.591 86.3921H505.654L505.657 86.3944ZM560.514 125.11C554.669 125.11 549.53 123.894 545.097 121.463C540.664 119.035 537.233 115.618 534.802 111.217C532.373 106.816 531.158 101.759 531.158 96.0469C531.158 87.9676 532.899 80.7598 536.38 74.4234C539.861 68.0848 544.705 63.1427 550.91 59.5973C557.116 56.0519 564.161 54.2769 572.041 54.2769C577.95 54.2769 583.14 55.4762 587.605 57.8727C592.07 60.2692 595.519 63.6518 597.95 68.0206C600.381 72.387 601.594 77.3955 601.594 83.0439C601.594 91.1232 599.854 98.3631 596.372 104.766C592.891 111.169 588.032 116.161 581.792 119.739C575.552 123.319 568.461 125.107 560.512 125.107L560.514 125.11ZM563.076 109.545C567.41 109.545 571.22 108.428 574.504 106.195C577.788 103.961 580.333 100.957 582.138 97.1798C583.945 93.4027 584.846 89.3161 584.846 84.9152C584.846 80.1865 583.532 76.4759 580.906 73.7836C578.281 71.0913 574.602 69.7451 569.873 69.7451C565.539 69.7451 561.714 70.8619 558.398 73.0956C555.082 75.3293 552.52 78.2991 550.713 82.0119C548.906 85.7225 548.005 89.8114 548.005 94.2765C548.005 99.0052 549.319 102.732 551.944 105.459C554.57 108.185 558.283 109.547 563.076 109.547V109.545ZM705.611 55.2653L675.367 124.422H654.975L651.921 79.0077L632.515 124.422H612.123L606.802 55.2653H624.83L625.915 105.605L647.095 55.2653H665.715L668.671 105.309L687.487 55.2653H705.613H705.611ZM721.754 68.5641L719.291 82.9476H741.85L739.584 95.657H717.025L714.266 111.123H739.781L737.417 124.422H695.055L707.271 55.2653H749.633L747.269 68.5641H721.754ZM782.03 55.2653C789.188 55.2653 794.639 56.8912 798.384 60.1431C802.127 63.395 804 67.6123 804 72.8021C804 74.3133 803.87 75.7237 803.606 77.0378C802.819 81.6358 800.815 85.7385 797.597 89.3528C794.38 92.9647 790.078 95.5263 784.693 97.0376L795.825 124.424H776.811L767.058 98.3172H763.019L758.389 124.424H741.542L753.759 55.2676H782.033L782.03 55.2653ZM786.365 77.7258C786.495 76.6754 786.562 75.9852 786.562 75.6572C786.562 73.5566 785.888 71.9306 784.542 70.7817C783.195 69.6327 781.209 69.0571 778.581 69.0571H768.138L765.083 86.3944H775.524C778.611 86.3944 781.058 85.6399 782.863 84.1286C784.67 82.6174 785.835 80.4846 786.36 77.7258H786.365Z" fill="#0A1825"/>
<defs>
<linearGradient id="paint0_linear_33_893" x1="4.18204" y1="11.0496" x2="175.378" y2="47.2681" gradientUnits="userSpaceOnUse">
<stop stop-color="#001947"/>
<stop offset="1" stop-color="#03416E"/>
</linearGradient>
</defs>
</svg>
